<svg xmlns="http://www.w3.org/2000/svg" viewBox="0 0 822 229.9"><defs><style>.cls-1{fill:#000524;}.cls-2{fill:#fff;}</style></defs><g id="Layer_2" data-name="Layer 2"><g id="Layer_1-2" data-name="Layer 1"><polygon class="cls-1" points="0 0 0 229.9 822 229.9 822 228.42 651.85 0 0 0"/><path class="cls-2" d="M282,134.45a27.55,27.55,0,0,0,13,3.42c5.41,0,8.4-2.27,8.4-5.79,0-3.14-2.35-5.05-8.77-7-8.48-2.52-14.24-6.64-14.24-14.34,0-8.19,7.16-14.25,18.29-14.25a30,30,0,0,1,13.2,2.62l-2.49,8.17a25.05,25.05,0,0,0-10.9-2.5c-5.34,0-7.71,2.51-7.71,5.12,0,3.37,3,4.87,9.63,7,9,3,13.42,7.11,13.42,14.54,0,7.61-5.77,14.81-19.64,14.81-5.68,0-11.51-1.62-14.48-3.37Z"/><path class="cls-2" d="M329.53,131.11c.34,4.93,5.32,7.47,10.94,7.47a30.19,30.19,0,0,0,10.44-1.64l1.44,6.95a34.27,34.27,0,0,1-13.24,2.4c-12.12,0-19.25-7.11-19.25-17.85,0-8.39,5.5-18.69,18.25-18.69,12.36,0,16.27,10,16.27,17.51a18.32,18.32,0,0,1-.38,3.85Zm15.31-7.1c0-2.19-1.16-7.48-7.3-7.48-5.46,0-7.68,4.48-8.09,7.48Z"/><path class="cls-2" d="M372.68,100.46v10.15H381v7.74h-8.33v12.87c0,4.25.87,6.63,4.57,6.63a13.5,13.5,0,0,0,3.54-.4l.13,7.81a21.1,21.1,0,0,1-7.05,1,11.07,11.07,0,0,1-8.21-3.21c-2-2.12-2.87-5.6-2.87-10.18V118.35h-4.9v-7.74h4.9v-7.8Z"/><path class="cls-2" d="M399.28,100.46v10.15h8.33v7.74h-8.33v12.87c0,4.25.87,6.63,4.57,6.63a13.56,13.56,0,0,0,3.54-.4l.13,7.81a21.13,21.13,0,0,1-7.06,1,11.06,11.06,0,0,1-8.2-3.21c-2-2.12-2.87-5.6-2.87-10.18V118.35h-4.9v-7.74h4.9v-7.8Z"/><path class="cls-2" d="M425.26,100.73c0,2.84-2.09,5.22-5.64,5.22a5.24,5.24,0,1,1,5.64-5.22Zm-10.67,44.7V110.61h10.17v34.82Z"/><path class="cls-2" d="M434.4,121.58c0-4.3-.12-7.94-.28-11H443l.47,5.33h.23a13.3,13.3,0,0,1,11.56-6.19c6.64,0,13.28,4.18,13.28,15.67v20H458.35V126.8c0-5.24-2-8.75-6.67-8.75a7.24,7.24,0,0,0-6.74,4.89,7.49,7.49,0,0,0-.37,2.58v19.91H434.4Z"/><path class="cls-2" d="M512.54,110.61c-.16,2-.28,4.76-.28,9.94V140c0,6.67-1.4,12.48-5.51,16.12s-9.6,4.4-14.53,4.4-10.14-1.07-13.37-3.06l2.13-7.83a22.27,22.27,0,0,0,11.08,3c5.54,0,10.23-2.82,10.23-10.09V140h-.14a12.67,12.67,0,0,1-10.68,5.17c-8.82,0-15.79-6.69-15.79-17,0-11.19,7.83-18.41,16.85-18.41,5.64,0,8.91,2.51,10.74,5.49h.14l.3-4.63Zm-10.45,14.6a8.44,8.44,0,0,0-.2-2,7.33,7.33,0,0,0-7.33-5.8c-4.58,0-8.52,3.64-8.52,10.51,0,5,2.95,9.76,8.53,9.76a7.52,7.52,0,0,0,7.21-5.41,13.06,13.06,0,0,0,.31-3Z"/><path class="cls-2" d="M521.75,136.29a22.08,22.08,0,0,0,9.9,2.81c3.81,0,5.34-1.37,5.34-3.3,0-2.08-1.31-3-5.7-4.3-7.44-2.09-10.54-6-10.5-10.4,0-6.41,5.52-11.35,14.34-11.35a23.14,23.14,0,0,1,10.24,2.19L543.51,119a19,19,0,0,0-8.19-2.16c-2.94,0-4.67,1.18-4.67,3.19s1.72,2.94,6.3,4.31c6.89,2,9.9,5.29,9.95,10.72,0,6.2-4.92,11.22-15.24,11.22a26.18,26.18,0,0,1-11.84-2.6Z"/><path class="cls-2" d="M198.94,130.7a41.34,41.34,0,0,0,.34-5.34,35.71,35.71,0,0,0-.38-5.34l11.3-9a2.78,2.78,0,0,0,.68-3.46l-10.7-18.86a2.72,2.72,0,0,0-3.3-1.24l-13.32,5.44a38.73,38.73,0,0,0-9-5.34l-2-14.42a2.71,2.71,0,0,0-2.68-2.32h-21.4a2.65,2.65,0,0,0-2.62,2.32l-2,14.42a40,40,0,0,0-9,5.34l-13.32-5.44a2.65,2.65,0,0,0-3.3,1.24l-10.64,18.86a2.61,2.61,0,0,0,.66,3.46l11.32,9a31.91,31.91,0,0,0-.1,10.68l-11.32,9a2.84,2.84,0,0,0-.68,3.46L118.12,162a2.69,2.69,0,0,0,3.28,1.24l13.32-5.44a39.86,39.86,0,0,0,9,5.34l2,14.42a2.75,2.75,0,0,0,2.68,2.32h21.4a2.6,2.6,0,0,0,2.62-2.32l2-14.42a38.47,38.47,0,0,0,9-5.34l13.32,5.44a2.65,2.65,0,0,0,3.3-1.24l10.7-18.86a2.63,2.63,0,0,0-.66-3.46Zm-39.8,15.1a20.44,20.44,0,1,1,20.08-20.44A20.31,20.31,0,0,1,159.14,145.8Z"/><path class="cls-2" d="M198.94,130.7a41.34,41.34,0,0,0,.34-5.34,35.71,35.71,0,0,0-.38-5.34l11.3-9a2.78,2.78,0,0,0,.68-3.46l-10.7-18.86a2.72,2.72,0,0,0-3.3-1.24l-13.32,5.44a38.73,38.73,0,0,0-9-5.34l-2-14.42a2.71,2.71,0,0,0-2.68-2.32h-21.4a2.65,2.65,0,0,0-2.62,2.32l-2,14.42a40,40,0,0,0-9,5.34l-13.32-5.44a2.65,2.65,0,0,0-3.3,1.24l-10.64,18.86a2.61,2.61,0,0,0,.66,3.46l11.32,9a31.91,31.91,0,0,0-.1,10.68l-11.32,9a2.84,2.84,0,0,0-.68,3.46L118.12,162a2.69,2.69,0,0,0,3.28,1.24l13.32-5.44a39.86,39.86,0,0,0,9,5.34l2,14.42a2.75,2.75,0,0,0,2.68,2.32h21.4a2.6,2.6,0,0,0,2.62-2.32l2-14.42a38.47,38.47,0,0,0,9-5.34l13.32,5.44a2.65,2.65,0,0,0,3.3-1.24l10.7-18.86a2.63,2.63,0,0,0-.66-3.46Zm-39.8,15.1a20.44,20.44,0,1,1,20.08-20.44A20.31,20.31,0,0,1,159.14,145.8Z"/></g></g></svg>