# Blender v2.82 (sub 7) OBJ File: ''
# www.blender.org
mtllib WallConnector.mtl
o Cylinder
v 0.000000 -0.999999 20.000000
v 0.000000 -1.000001 -20.000000
v 0.195090 -0.980784 20.000000
v 0.195090 -0.980786 -20.000000
v 0.382683 -0.923879 20.000000
v 0.382683 -0.923880 -20.000000
v 0.555570 -0.831469 20.000000
v 0.555570 -0.831470 -20.000000
v 0.707107 -0.707106 20.000000
v 0.707107 -0.707108 -20.000000
v 0.831470 -0.555569 20.000000
v 0.831470 -0.555571 -20.000000
v 0.923880 -0.382683 20.000000
v 0.923880 -0.382684 -20.000000
v 0.980785 -0.195089 20.000000
v 0.980785 -0.195091 -20.000000
v 1.000000 0.000001 20.000000
v 1.000000 -0.000001 -20.000000
vt 1.000000 0.500000
vt 0.968750 0.500000
vt 0.968750 1.000000
vt 1.000000 1.000000
vt 0.937500 0.500000
vt 0.937500 1.000000
vt 0.906250 0.500000
vt 0.906250 1.000000
vt 0.875000 0.500000
vt 0.875000 1.000000
vt 0.843750 0.500000
vt 0.843750 1.000000
vt 0.812500 0.500000
vt 0.812500 1.000000
vt 0.781250 0.500000
vt 0.781250 1.000000
vt 0.750000 0.500000
vt 0.750000 1.000000
vn -0.0980 0.9952 -0.0000
vn -0.2903 0.9569 -0.0000
vn -0.4714 0.8819 -0.0000
vn -0.6344 0.7730 -0.0000
vn -0.7730 0.6344 -0.0000
vn -0.8819 0.4714 -0.0000
vn -0.9569 0.2903 -0.0000
vn -0.9952 0.0980 -0.0000
usemtl None
s off
f 1/1/1 3/2/1 4/3/1 2/4/1
f 3/2/2 5/5/2 6/6/2 4/3/2
f 5/5/3 7/7/3 8/8/3 6/6/3
f 7/7/4 9/9/4 10/10/4 8/8/4
f 9/9/5 11/11/5 12/12/5 10/10/5
f 11/11/6 13/13/6 14/14/6 12/12/6
f 13/13/7 15/15/7 16/16/7 14/14/7
f 15/15/8 17/17/8 18/18/8 16/16/8
